# xmcd
#
# Track frame offsets:
#	150
#	14431
#	27213
#	40595
#	53362
#	66334
#	78562
#	91457
#	105027
#	118117
#	134015
#	146966
#	160228
#	172821
#	185631
#	199676
#	213739
#	226375
#	240130
#	254223
#	267955
#	282413
#	295883
#	309782
#	323826
#	337906
#
# Disc length: 4671 seconds
#
# Revision: 1
# Processed by: cddbd v1.5.2PL0 Copyright (c) Steve Scherf et al.
# Submitted via: audiograbber 1.83.01
#
DISCID=75123d1a
DTITLE=Sonny Boy Williamson - The Original Sonny Boy Williamson - The Later Yea
DTITLE=rs - 1939-1941
DYEAR=2012
DGENRE=Blues
TTITLE0=Sonny Boy Williamson - Honey Bee Blues
TTITLE1=Sonny Boy Williamson -  i Been Dealing With the Devil
TTITLE2=Sonny Boy Williamson - War Time Blues
TTITLE3=Sonny Boy Williamson - Train Fare Blues
TTITLE4=Sonny Boy Williamson - Decoration Day  Blues No. 2
TTITLE5=Sonny Boy Williamson - New Early in the Morning
TTITLE6=Sonny Boy Williamson - Welfare Store Blues
TTITLE7=Sonny Boy Williamson - My Little Machine
TTITLE8=Sonny Boy Williamson - Jivin' the Blues
TTITLE9=Yank Rachell - Hobo Blues
TTITLE10=Yank Rachell - It Seem Like A Dream
TTITLE11=Yank Rachell - Army Man Blues
TTITLE12=Yank Rachell - 38 Pistol Blues
TTITLE13=Yank Rachell - Worried Blues
TTITLE14=Yank Rachell - Biscuit Baking Woman
TTITLE15=Yank Rachell - Insurance Man Blues
TTITLE16=Yank Rachell - Up North Blues (There's A Reason)
TTITLE17=Sonny Boy Williamson - Western Union Man
TTITLE18=Sonny Boy Williamson - Big Apple Blues
TTITLE19=Sonny Boy Williamson - Springtime Blues
TTITLE20=Sonny Boy Williamson - My Baby Made A Change
TTITLE21=Sonny Boy Williamson - Shotgun Blues
TTITLE22=Sonny Boy Williamson - Coal and Iceman Blues
TTITLE23=Sonny Boy Williamson - Drink on, Little Girl
TTITLE24=Sonny Boy Williamson - Mattie Mae Blues
TTITLE25=Sonny Boy Williamson - I'M Gonna Catch You Soon
EXTD=
EXTT0=
EXTT1=
EXTT2=
EXTT3=
EXTT4=
EXTT5=
EXTT6=
EXTT7=
EXTT8=
EXTT9=
EXTT10=
EXTT11=
EXTT12=
EXTT13=
EXTT14=
EXTT15=
EXTT16=
EXTT17=
EXTT18=
EXTT19=
EXTT20=
EXTT21=
EXTT22=
EXTT23=
EXTT24=
EXTT25=
PLAYORDER=
